<svg width="30" height="43" viewBox="0 0 30 43" fill="none" xmlns="http://www.w3.org/2000/svg">
<path d="M21.737 27.4598C24.997 26.1415 26.6269 25.4824 27.1104 24.2167C27.53 23.1184 27.5219 21.7277 27.0887 20.4734C26.5894 19.0281 24.9483 17.7708 21.666 15.2561L9.2604 5.75159C6.49101 3.62985 5.10633 2.56899 4.13294 2.75974C3.28562 2.92578 2.58791 3.63266 2.23004 4.68763C1.81893 5.89956 2.17584 8.00172 2.88968 12.206L6.05161 30.8294C6.92966 36.0008 7.36868 38.5868 8.26677 39.6509C9.04564 40.5737 10.043 40.9643 10.944 40.6992C11.9829 40.3936 12.8989 38.3384 14.731 34.2281L16.0845 31.1914C16.376 30.5371 16.5218 30.2099 16.7097 29.9436C16.8764 29.7071 17.0672 29.5068 17.2773 29.3472C17.5142 29.1674 17.7834 29.0586 18.322 28.8409L21.737 27.4598Z" stroke="#FFFAFA" stroke-opacity="0.5" stroke-width="4" stroke-linecap="round" stroke-linejoin="round"/>
</svg>
