<svg width="35" height="33" viewBox="0 0 35 33" fill="none" xmlns="http://www.w3.org/2000/svg">
<path fill-rule="evenodd" clip-rule="evenodd" d="M17.4402 0.495117C27.0725 0.495117 34.8804 7.85141 34.8804 16.9275C34.8804 24.1862 29.8891 30.3438 22.9635 32.5187C22.0793 32.6805 21.7654 32.1674 21.7654 31.7298C21.7654 31.1881 21.7863 29.4188 21.7863 27.2199C21.7863 25.6877 21.2282 24.6877 20.6021 24.178C24.4861 23.7709 28.5671 22.3813 28.5671 16.0698C28.5671 14.2748 27.8904 12.81 26.7707 11.6593C26.9521 11.2442 27.5503 9.57275 26.5998 7.30974C26.5998 7.30974 25.1383 6.86943 21.809 8.99461C20.4155 8.6308 18.9226 8.44774 17.4402 8.44133C15.9578 8.44774 14.4667 8.6308 13.0749 8.99461C9.74211 6.86943 8.27713 7.30974 8.27713 7.30974C7.33013 9.57275 7.92833 11.2442 8.10796 11.6593C6.99353 12.81 6.31162 14.2748 6.31162 16.0698C6.31162 22.3652 10.3839 23.7762 14.2574 24.1913C13.7586 24.6016 13.3069 25.3254 13.1499 26.388C12.1558 26.8079 9.63049 27.5346 8.07482 25.0232C8.07482 25.0232 7.15224 23.4443 5.40124 23.3289C5.40124 23.3289 3.70081 23.3082 5.28264 24.3275C5.28264 24.3275 6.42498 24.8324 7.21851 26.7316C7.21851 26.7316 8.24226 29.6644 13.0941 28.6708C13.1028 30.0443 13.1185 31.3388 13.1185 31.7298C13.1185 32.1642 12.7976 32.6725 11.9274 32.5202C4.99662 30.3486 0 24.1878 0 16.9275C0 7.85141 7.80973 0.495117 17.4402 0.495117Z" fill="white"/>
</svg>
