<svg width="36" height="35" viewBox="0 0 36 35" fill="none" xmlns="http://www.w3.org/2000/svg">
<path d="M18 0.186279C8.0595 0.186279 0 7.79803 0 17.1863C0 26.5745 8.0595 34.1863 18 34.1863C27.9405 34.1863 36 26.5745 36 17.1863C36 7.79803 27.9405 0.186279 18 0.186279ZM10.443 11.0663C11.574 11.0663 12.4485 11.844 12.5505 12.7663C12.654 13.5922 12.294 14.3204 11.3175 14.7581C10.803 15.0004 10.5975 15.0018 10.494 14.8559C10.443 14.7581 10.494 14.6618 10.5975 14.564C11.523 13.8359 11.523 13.2522 11.4195 12.4277C11.3685 11.8922 10.9575 11.5522 10.545 11.5522C8.745 11.5522 6.174 15.3404 6.534 18.1099C6.6885 19.1781 7.3575 20.4418 8.7975 20.4418C9.2595 20.4418 9.7725 20.2959 10.2375 20.1018C10.9875 19.7278 11.436 19.4359 11.883 18.9684C11.7735 17.7147 12.939 16.0699 14.6595 16.0699C15.432 16.0699 16.0485 16.3604 16.0995 16.8959C16.2015 17.624 15.534 17.7204 15.3285 17.7204C15.123 17.7204 14.7615 17.6722 14.7615 17.4795C14.7105 17.284 15.225 17.3804 15.174 16.944C15.1215 16.6522 14.814 16.5559 14.505 16.5559C13.425 16.5559 12.8085 17.964 12.9615 18.8381C13.014 19.2277 13.2195 19.6159 13.632 19.6159C13.9395 19.6159 14.403 19.1767 14.5575 18.5463C14.6595 18.1099 15.072 17.8181 15.432 17.8181C15.585 17.8181 15.687 17.8663 15.7395 18.0604V18.2559C15.6885 18.4499 15.534 19.0322 15.5865 19.1781C15.5865 19.2759 15.6375 19.4204 15.8415 19.4204C15.9795 19.4204 16.4955 19.1654 17.007 18.7701C17.1825 17.9343 17.3865 16.9313 17.3865 16.8477C17.4375 16.5077 17.592 16.1677 18.312 16.1677C18.4665 16.1677 18.5685 16.2159 18.6195 16.4099V16.6054L18.4155 17.4795C19.083 16.6536 20.061 16.0714 20.6775 16.0714C20.9355 16.0714 21.141 16.2159 21.141 16.4595C21.141 16.6054 21.141 16.8477 21.0375 17.0914C20.832 17.6254 20.574 18.4514 20.4195 19.1795C20.4195 19.3736 20.472 19.5677 20.73 19.5677C20.9865 19.5677 21.7575 19.2759 22.374 18.4995L22.3845 18.4939C22.3815 18.3975 22.374 18.304 22.374 18.2077C22.374 17.6254 22.4265 17.1395 22.53 16.7995C22.632 16.4114 23.1465 16.0714 23.4555 16.0714C23.61 16.0714 23.763 16.1691 23.763 16.3136C23.763 16.3632 23.763 16.4595 23.712 16.5077C23.5065 17.1395 23.352 17.7218 23.352 18.3054C23.352 18.6454 23.403 19.1299 23.505 19.4218C23.505 19.4699 23.5575 19.5195 23.61 19.5195C23.712 19.5195 24.432 18.8891 24.945 18.0632C24.483 17.7714 24.225 17.2854 24.225 16.7032C24.225 15.6832 24.894 15.1491 25.512 15.1491C26.0265 15.1491 26.4375 15.4891 26.4375 16.1691C26.4375 16.6054 26.283 17.0899 26.0265 17.5291H26.1795C26.3427 17.5341 26.5051 17.5064 26.6561 17.4478C26.8071 17.3892 26.9432 17.301 27.0555 17.1891C27.1027 17.1155 27.1729 17.0576 27.2565 17.0234C27.759 16.4213 28.5015 15.975 29.3715 15.975C30.0915 15.975 30.7575 16.2654 30.81 16.7995C30.912 17.5291 30.243 17.675 30.0375 17.675L30.0345 17.6722C29.8275 17.6722 29.469 17.6226 29.469 17.4285C29.469 17.2344 29.9325 17.3322 29.88 16.8959C29.829 16.604 29.52 16.5063 29.211 16.5063C28.182 16.5063 27.516 17.7685 27.669 18.7885C27.72 19.1781 27.9255 19.6144 28.3365 19.6144C28.6455 19.6144 29.109 19.1781 29.3145 18.5463C29.4165 18.1581 29.829 17.8181 30.189 17.8181C30.3435 17.8181 30.444 17.8663 30.4965 18.0604C30.4965 18.1581 30.4965 18.3522 30.291 18.984C30.036 19.4204 30.0345 19.664 30.0855 19.8581C30.1365 20.2463 30.342 20.5381 30.549 20.684C30.6 20.7322 30.651 20.8285 30.651 20.8285C30.651 20.9263 30.6 21.024 30.4455 21.024C30.3945 21.024 30.3435 21.024 30.291 20.9744C29.52 20.684 29.211 20.1981 29.1075 19.7122C28.8 20.0522 28.44 20.2463 28.0275 20.2463C27.36 20.2463 26.6925 19.664 26.5875 18.9344C26.558 18.6239 26.5963 18.311 26.7 18.015C26.3955 18.1992 26.067 18.3026 25.7655 18.3026H25.5105C24.84 19.2263 24.12 19.8581 23.6055 20.1485C23.4308 20.2364 23.2377 20.2867 23.04 20.2959C22.938 20.2959 22.7835 20.2463 22.7325 20.1485C22.59 19.9332 22.4985 19.5932 22.443 19.2036C21.7215 19.9502 20.7255 20.344 20.2635 20.344C19.749 20.344 19.4415 20.0522 19.3905 19.5649V19.0322C19.5435 17.964 19.956 17.3322 19.956 17.1381C19.9546 17.1125 19.9433 17.0882 19.9242 17.07C19.9051 17.0517 19.8796 17.0406 19.8525 17.0389C19.4925 17.0389 18.3105 18.2063 18.1035 18.984L17.949 19.6144C17.847 20.0522 17.3835 20.344 17.076 20.344C16.9215 20.344 16.818 20.2944 16.767 20.1004V19.9063L16.836 19.5762C16.1835 20.0154 15.531 20.2959 15.2235 20.2959C14.7615 20.2959 14.5035 20.0522 14.4525 19.7122C14.1435 20.1004 13.785 20.2959 13.3215 20.2959C12.7935 20.2959 12.2775 19.9559 12.0285 19.4558C11.6625 19.8454 11.244 20.2392 10.7505 20.5381C10.0305 20.9759 9.2085 21.3159 8.2305 21.3159C7.3575 21.3159 6.585 20.8781 6.174 20.4899C5.556 19.9559 5.1975 19.1299 5.145 18.3522C4.8375 15.9722 6.3795 12.9122 8.745 11.5522C9.312 11.2618 9.8775 11.0663 10.443 11.0663ZM25.098 15.7285C24.942 15.7285 24.84 15.9722 24.84 16.2144C24.84 16.6026 25.0455 17.0404 25.3035 17.284C25.4041 17.019 25.4558 16.7396 25.4565 16.4581C25.4565 15.9722 25.2525 15.7285 25.098 15.7285Z" fill="url(#paint0_linear_10_25)"/>
<defs>
<linearGradient id="paint0_linear_10_25" x1="18" y1="0.18628" x2="18" y2="34.1863" gradientUnits="userSpaceOnUse">
<stop stop-color="#5491CA"/>
<stop offset="0.917124" stop-color="#4F2964"/>
</linearGradient>
</defs>
</svg>
