<svg width="33" height="44" viewBox="0 0 33 44" fill="none" xmlns="http://www.w3.org/2000/svg">
<path d="M16.8754 36.1311C19.096 39.8114 20.2063 41.6514 21.3997 41.8058C22.4353 41.9398 23.5554 41.4206 24.4144 40.4087C25.4044 39.2425 25.8375 36.6871 26.7038 31.5763L29.9781 12.2593C30.709 7.94707 31.0744 5.79096 30.5752 4.61786C30.1406 3.59669 29.3224 2.9644 28.3437 2.89336C27.2193 2.81175 25.6485 4.03645 22.507 6.48587L8.59143 17.3357C4.7273 20.3485 2.79507 21.855 2.25441 23.391C1.78556 24.7231 1.82389 26.1394 2.3575 27.1929C2.97275 28.4077 4.95703 28.8254 8.9256 29.6612L11.8575 30.2786C12.4893 30.4115 12.8052 30.478 13.0868 30.6205C13.3369 30.7468 13.5662 30.9172 13.7697 31.127C13.9988 31.3638 14.1822 31.6677 14.549 32.2757L16.8754 36.1311Z" stroke="#FFFAFA" stroke-opacity="0.5" stroke-width="4" stroke-linecap="round" stroke-linejoin="round"/>
</svg>
