<svg width="42" height="38" viewBox="0 0 42 38" fill="none" xmlns="http://www.w3.org/2000/svg">
<path fill-rule="evenodd" clip-rule="evenodd" d="M41.6208 37.5491H33.4489V24.4087C33.4489 20.804 31.7184 18.7929 28.6151 18.7929C25.2381 18.7929 23.2339 20.8885 23.2339 24.4087V37.5491H15.0619V13.1422H23.2339V15.8869C23.2339 15.8869 25.7978 11.7524 31.5754 11.7524C37.355 11.7524 41.6208 14.9936 41.6208 21.6998V37.5491ZM5.7499 9.23876C2.99389 9.23876 0.760895 7.16993 0.760895 4.61847C0.760895 2.06888 2.99389 0 5.7499 0C8.50386 0 10.7368 2.06888 10.7368 4.61847C10.7389 7.16993 8.50386 9.23876 5.7499 9.23876ZM0.760895 37.5491H10.9759V13.1422H0.760895V37.5491Z" fill="white"/>
</svg>
