<svg width="36" height="33" viewBox="0 0 36 33" fill="none" xmlns="http://www.w3.org/2000/svg">
<path fill-rule="evenodd" clip-rule="evenodd" d="M11.1173 0.691815C8.27819 0.809534 5.81745 1.4474 3.83045 3.26568C1.83651 5.09351 1.15102 7.36382 1.0226 9.94569C0.942772 11.5572 0.475984 23.7315 1.82957 26.9243C2.74238 29.0782 4.54017 30.7343 6.90548 31.5759C8.00918 31.9704 9.26909 32.2374 11.1173 32.3154C26.5707 32.9581 32.2992 32.6082 34.7148 26.9243C35.1434 25.9125 35.4384 24.7557 35.52 23.0615C36.2263 8.82388 35.4055 5.73778 32.7122 3.26568C30.576 1.30741 28.0631 -0.0256333 11.1173 0.691815ZM11.2595 29.452C9.56754 29.382 8.64954 29.1229 8.03696 28.905C6.49595 28.3545 5.33846 27.2952 4.74323 25.8874C3.71242 23.4614 4.0543 11.9392 4.14628 10.0748C4.23652 8.24856 4.63912 6.57951 6.0413 5.29097C7.77666 3.70016 10.0187 2.92052 25.2848 3.55367C27.277 3.63638 29.0974 4.0056 30.5031 5.29097C32.2384 6.88176 33.0992 8.95801 32.3981 22.9332C32.3217 24.4842 32.0389 25.3258 31.8011 25.8874C30.2306 29.586 26.6175 30.0994 11.2595 29.452ZM25.4531 8.01118C25.4531 9.06429 26.385 9.92064 27.5356 9.92064C28.6861 9.92064 29.6198 9.06429 29.6198 8.01118C29.6198 6.95807 28.6861 6.10249 27.5356 6.10249C26.385 6.10249 25.4531 6.95807 25.4531 8.01118ZM9.36105 16.5028C9.36105 21.0143 13.3507 24.6721 18.2722 24.6721C23.1937 24.6721 27.1833 21.0143 27.1833 16.5028C27.1833 11.9913 23.1937 8.33594 18.2722 8.33594C13.3507 8.33594 9.36105 11.9913 9.36105 16.5028ZM12.4882 16.5028C12.4882 13.5758 15.0774 11.2009 18.2722 11.2009C21.467 11.2009 24.0562 13.5758 24.0562 16.5028C24.0562 19.4315 21.467 21.8071 18.2722 21.8071C15.0774 21.8071 12.4882 19.4315 12.4882 16.5028Z" fill="white"/>
</svg>
