<svg width="26" height="35" viewBox="0 0 26 35" fill="none" xmlns="http://www.w3.org/2000/svg">
<path d="M13 0.186279H6.5C2.91016 0.186279 0 2.72334 0 5.85295C0 8.98255 2.91016 11.5196 6.5 11.5196M13 0.186279V11.5196V0.186279ZM13 0.186279H19.5C23.09 0.186279 26 2.72334 26 5.85295C26 8.98255 23.09 11.5196 19.5 11.5196M13 11.5196H6.5H13ZM13 11.5196H19.5H13ZM13 11.5196V22.8529V11.5196ZM6.5 11.5196C2.91016 11.5196 0 14.0566 0 17.1863C0 20.316 2.91016 22.8529 6.5 22.8529M19.5 11.5196C23.09 11.5196 26 14.0566 26 17.1863C26 20.316 23.09 22.8529 19.5 22.8529C15.9101 22.8529 13 20.316 13 17.1863C13 14.0566 15.9101 11.5196 19.5 11.5196ZM13 22.8529H6.5H13ZM13 22.8529V28.5196C13 31.6493 10.09 34.1863 6.5 34.1863C2.91016 34.1863 0 31.6493 0 28.5196C0 25.3899 2.91016 22.8529 6.5 22.8529" fill="#D9D9D9"/>
</svg>
